<?xml version="1.0" encoding="UTF-8" standalone="no"?>
<!DOCTYPE svg PUBLIC "-//W3C//DTD SVG 1.1//EN"
 "http://www.w3.org/Graphics/SVG/1.1/DTD/svg11.dtd">
<!-- Generated by graphviz version 2.40.1 (20161225.0304)
 -->
<!-- Title: dependencies Pages: 1 -->
<svg width="740pt" height="284pt"
 viewBox="0.00 0.00 740.00 284.00" xmlns="http://www.w3.org/2000/svg" xmlns:xlink="http://www.w3.org/1999/xlink">
<g id="graph0" class="graph" transform="scale(1 1) rotate(0) translate(4 280)">
<title>dependencies</title>
<polygon fill="#ffffff" stroke="transparent" points="-4,4 -4,-280 736,-280 736,4 -4,4"/>
<text text-anchor="start" x="345.0091" y="-42.4" font-family="sans-serif" font-weight="bold" font-size="14.00" fill="#000000">Legend</text>
<polygon fill="#ffffb3" stroke="transparent" points="132,-10 132,-30 152,-30 152,-10 132,-10"/>
<text text-anchor="start" x="155.629" y="-15.4" font-family="sans-serif" font-size="14.00" fill="#000000"> &#160;Declarations</text>
<polygon fill="#8dd3c7" stroke="transparent" points="245,-10 245,-30 265,-30 265,-10 245,-10"/>
<text text-anchor="start" x="268.7251" y="-15.4" font-family="sans-serif" font-size="14.00" fill="#000000"> &#160;Module</text>
<polygon fill="#80b1d3" stroke="transparent" points="331,-10 331,-30 351,-30 351,-10 331,-10"/>
<text text-anchor="start" x="354.7812" y="-15.4" font-family="sans-serif" font-size="14.00" fill="#000000"> &#160;Bootstrap</text>
<polygon fill="#fdb462" stroke="transparent" points="428,-10 428,-30 448,-30 448,-10 428,-10"/>
<text text-anchor="start" x="451.6732" y="-15.4" font-family="sans-serif" font-size="14.00" fill="#000000"> &#160;Providers</text>
<polygon fill="#fb8072" stroke="transparent" points="524,-10 524,-30 544,-30 544,-10 524,-10"/>
<text text-anchor="start" x="547.7258" y="-15.4" font-family="sans-serif" font-size="14.00" fill="#000000"> &#160;Exports</text>
<g id="clust1" class="cluster">
<title>cluster_ConstraintRuleModule</title>
<polygon fill="none" stroke="#000000" stroke-dasharray="1,5" points="8,-70 8,-268 724,-268 724,-70 8,-70"/>
</g>
<g id="clust2" class="cluster">
<title>cluster_ConstraintRuleModule_declarations</title>
<polygon fill="none" stroke="#000000" points="132,-78 132,-130 712,-130 712,-78 132,-78"/>
</g>
<g id="clust6" class="cluster">
<title>cluster_ConstraintRuleModule_imports</title>
<polygon fill="none" stroke="#000000" points="20,-78 20,-130 124,-130 124,-78 20,-78"/>
</g>
<g id="clust7" class="cluster">
<title>cluster_ConstraintRuleModule_exports</title>
<polygon fill="none" stroke="#000000" points="16,-208 16,-260 716,-260 716,-208 16,-208"/>
</g>
<!-- CRIconComponent -->
<g id="node1" class="node">
<title>CRIconComponent</title>
<polygon fill="#ffffb3" stroke="#000000" points="704.3809,-122 579.6191,-122 579.6191,-86 704.3809,-86 704.3809,-122"/>
<text text-anchor="middle" x="642" y="-99.8" font-family="Times,serif" font-size="14.00" fill="#000000">CRIconComponent</text>
</g>
<!-- ConstraintRuleModule -->
<g id="node4" class="node">
<title>ConstraintRuleModule</title>
<polygon fill="#8dd3c7" stroke="#000000" points="480.3202,-187 477.3202,-191 456.3202,-191 453.3202,-187 335.6798,-187 335.6798,-151 480.3202,-151 480.3202,-187"/>
<text text-anchor="middle" x="408" y="-164.8" font-family="Times,serif" font-size="14.00" fill="#000000">ConstraintRuleModule</text>
</g>
<!-- CRIconComponent&#45;&gt;ConstraintRuleModule -->
<g id="edge1" class="edge">
<title>CRIconComponent&#45;&gt;ConstraintRuleModule</title>
<path fill="none" stroke="#000000" d="M588.875,-122.0225C588.875,-139.3734 588.875,-163 588.875,-163 588.875,-163 490.2664,-163 490.2664,-163"/>
<polygon fill="#000000" stroke="#000000" points="490.2664,-159.5001 480.2664,-163 490.2663,-166.5001 490.2664,-159.5001"/>
</g>
<!-- ConstraintRuleAlertComponent -->
<g id="node2" class="node">
<title>ConstraintRuleAlertComponent</title>
<polygon fill="#ffffb3" stroke="#000000" points="561.3654,-122 366.6346,-122 366.6346,-86 561.3654,-86 561.3654,-122"/>
<text text-anchor="middle" x="464" y="-99.8" font-family="Times,serif" font-size="14.00" fill="#000000">ConstraintRuleAlertComponent</text>
</g>
<!-- ConstraintRuleAlertComponent&#45;&gt;ConstraintRuleModule -->
<g id="edge2" class="edge">
<title>ConstraintRuleAlertComponent&#45;&gt;ConstraintRuleModule</title>
<path fill="none" stroke="#000000" d="M423.3636,-122.1061C423.3636,-122.1061 423.3636,-140.991 423.3636,-140.991"/>
<polygon fill="#000000" stroke="#000000" points="419.8637,-140.9909 423.3636,-150.991 426.8637,-140.991 419.8637,-140.9909"/>
</g>
<!-- ConstraintRuleSidebarComponent -->
<g id="node3" class="node">
<title>ConstraintRuleSidebarComponent</title>
<polygon fill="#ffffb3" stroke="#000000" points="348.3654,-122 139.6346,-122 139.6346,-86 348.3654,-86 348.3654,-122"/>
<text text-anchor="middle" x="244" y="-99.8" font-family="Times,serif" font-size="14.00" fill="#000000">ConstraintRuleSidebarComponent</text>
</g>
<!-- ConstraintRuleSidebarComponent&#45;&gt;ConstraintRuleModule -->
<g id="edge3" class="edge">
<title>ConstraintRuleSidebarComponent&#45;&gt;ConstraintRuleModule</title>
<path fill="none" stroke="#000000" d="M342.1364,-122.1061C342.1364,-122.1061 342.1364,-140.991 342.1364,-140.991"/>
<polygon fill="#000000" stroke="#000000" points="338.6365,-140.9909 342.1364,-150.991 345.6365,-140.991 338.6365,-140.9909"/>
</g>
<!-- AlertModule  -->
<g id="node6" class="node">
<title>AlertModule </title>
<polygon fill="#fb8072" stroke="#000000" points="707.813,-252 616.187,-252 616.187,-216 707.813,-216 707.813,-252"/>
<text text-anchor="middle" x="662" y="-229.8" font-family="Times,serif" font-size="14.00" fill="#000000">AlertModule </text>
</g>
<!-- ConstraintRuleModule&#45;&gt;AlertModule  -->
<g id="edge5" class="edge">
<title>ConstraintRuleModule&#45;&gt;AlertModule </title>
<path fill="none" stroke="#000000" stroke-dasharray="5,2" d="M480.2896,-175C554.834,-175 660.267,-175 660.267,-175 660.267,-175 660.267,-205.9775 660.267,-205.9775"/>
<polygon fill="#000000" stroke="#000000" points="656.7671,-205.9774 660.267,-215.9775 663.7671,-205.9775 656.7671,-205.9774"/>
</g>
<!-- CRIconComponent  -->
<g id="node7" class="node">
<title>CRIconComponent </title>
<polygon fill="#fb8072" stroke="#000000" points="598.3814,-252 469.6186,-252 469.6186,-216 598.3814,-216 598.3814,-252"/>
<text text-anchor="middle" x="534" y="-229.8" font-family="Times,serif" font-size="14.00" fill="#000000">CRIconComponent </text>
</g>
<!-- ConstraintRuleModule&#45;&gt;CRIconComponent  -->
<g id="edge6" class="edge">
<title>ConstraintRuleModule&#45;&gt;CRIconComponent </title>
<path fill="none" stroke="#000000" stroke-dasharray="5,2" d="M474.9848,-187.1061C474.9848,-187.1061 474.9848,-205.991 474.9848,-205.991"/>
<polygon fill="#000000" stroke="#000000" points="471.4848,-205.9909 474.9848,-215.991 478.4848,-205.991 471.4848,-205.9909"/>
</g>
<!-- ConstraintRuleAlertComponent  -->
<g id="node8" class="node">
<title>ConstraintRuleAlertComponent </title>
<polygon fill="#fb8072" stroke="#000000" points="452.3657,-252 253.6343,-252 253.6343,-216 452.3657,-216 452.3657,-252"/>
<text text-anchor="middle" x="353" y="-229.8" font-family="Times,serif" font-size="14.00" fill="#000000">ConstraintRuleAlertComponent </text>
</g>
<!-- ConstraintRuleModule&#45;&gt;ConstraintRuleAlertComponent  -->
<g id="edge7" class="edge">
<title>ConstraintRuleModule&#45;&gt;ConstraintRuleAlertComponent </title>
<path fill="none" stroke="#000000" stroke-dasharray="5,2" d="M394.0114,-187.1061C394.0114,-187.1061 394.0114,-205.991 394.0114,-205.991"/>
<polygon fill="#000000" stroke="#000000" points="390.5115,-205.9909 394.0114,-215.991 397.5115,-205.991 390.5115,-205.9909"/>
</g>
<!-- ConstraintRuleSidebarComponent  -->
<g id="node9" class="node">
<title>ConstraintRuleSidebarComponent </title>
<polygon fill="#fb8072" stroke="#000000" points="236.3657,-252 23.6343,-252 23.6343,-216 236.3657,-216 236.3657,-252"/>
<text text-anchor="middle" x="130" y="-229.8" font-family="Times,serif" font-size="14.00" fill="#000000">ConstraintRuleSidebarComponent </text>
</g>
<!-- ConstraintRuleModule&#45;&gt;ConstraintRuleSidebarComponent  -->
<g id="edge8" class="edge">
<title>ConstraintRuleModule&#45;&gt;ConstraintRuleSidebarComponent </title>
<path fill="none" stroke="#000000" stroke-dasharray="5,2" d="M335.618,-175C271.46,-175 187.875,-175 187.875,-175 187.875,-175 187.875,-205.9775 187.875,-205.9775"/>
<polygon fill="#000000" stroke="#000000" points="184.3751,-205.9774 187.875,-215.9775 191.3751,-205.9775 184.3751,-205.9774"/>
</g>
<!-- AlertModule -->
<g id="node5" class="node">
<title>AlertModule</title>
<polygon fill="#8dd3c7" stroke="#000000" points="116.3134,-122 113.3134,-126 92.3134,-126 89.3134,-122 27.6866,-122 27.6866,-86 116.3134,-86 116.3134,-122"/>
<text text-anchor="middle" x="72" y="-99.8" font-family="Times,serif" font-size="14.00" fill="#000000">AlertModule</text>
</g>
<!-- AlertModule&#45;&gt;ConstraintRuleModule -->
<g id="edge4" class="edge">
<title>AlertModule&#45;&gt;ConstraintRuleModule</title>
<path fill="none" stroke="#000000" d="M72,-122.0225C72,-139.3734 72,-163 72,-163 72,-163 325.5067,-163 325.5067,-163"/>
<polygon fill="#000000" stroke="#000000" points="325.5067,-166.5001 335.5067,-163 325.5066,-159.5001 325.5067,-166.5001"/>
</g>
</g>
</svg>
