<?xml version="1.0" encoding="UTF-8" standalone="no"?>
<!DOCTYPE svg PUBLIC "-//W3C//DTD SVG 1.1//EN"
 "http://www.w3.org/Graphics/SVG/1.1/DTD/svg11.dtd">
<!-- Generated by graphviz version 2.40.1 (20161225.0304)
 -->
<!-- Title: dependencies Pages: 1 -->
<svg width="5435pt" height="358pt"
 viewBox="0.00 0.00 5435.00 358.00" xmlns="http://www.w3.org/2000/svg" xmlns:xlink="http://www.w3.org/1999/xlink">
<g id="graph0" class="graph" transform="scale(1 1) rotate(0) translate(4 354)">
<title>dependencies</title>
<polygon fill="#ffffff" stroke="transparent" points="-4,4 -4,-354 5431,-354 5431,4 -4,4"/>
<text text-anchor="start" x="2692.5091" y="-42.4" font-family="sans-serif" font-weight="bold" font-size="14.00" fill="#000000">Legend</text>
<polygon fill="#ffffb3" stroke="transparent" points="2479.5,-10 2479.5,-30 2499.5,-30 2499.5,-10 2479.5,-10"/>
<text text-anchor="start" x="2503.129" y="-15.4" font-family="sans-serif" font-size="14.00" fill="#000000"> &#160;Declarations</text>
<polygon fill="#8dd3c7" stroke="transparent" points="2592.5,-10 2592.5,-30 2612.5,-30 2612.5,-10 2592.5,-10"/>
<text text-anchor="start" x="2616.2251" y="-15.4" font-family="sans-serif" font-size="14.00" fill="#000000"> &#160;Module</text>
<polygon fill="#80b1d3" stroke="transparent" points="2678.5,-10 2678.5,-30 2698.5,-30 2698.5,-10 2678.5,-10"/>
<text text-anchor="start" x="2702.2812" y="-15.4" font-family="sans-serif" font-size="14.00" fill="#000000"> &#160;Bootstrap</text>
<polygon fill="#fdb462" stroke="transparent" points="2775.5,-10 2775.5,-30 2795.5,-30 2795.5,-10 2775.5,-10"/>
<text text-anchor="start" x="2799.1732" y="-15.4" font-family="sans-serif" font-size="14.00" fill="#000000"> &#160;Providers</text>
<polygon fill="#fb8072" stroke="transparent" points="2871.5,-10 2871.5,-30 2891.5,-30 2891.5,-10 2871.5,-10"/>
<text text-anchor="start" x="2895.2258" y="-15.4" font-family="sans-serif" font-size="14.00" fill="#000000"> &#160;Exports</text>
<g id="clust1" class="cluster">
<title>cluster_AlertModule</title>
<polygon fill="none" stroke="#000000" stroke-dasharray="1,5" points="8,-70 8,-274 154,-274 154,-70 8,-70"/>
</g>
<g id="clust2" class="cluster">
<title>cluster_AlertModule_declarations</title>
<polygon fill="none" stroke="#000000" points="19,-78 19,-130 145,-130 145,-78 19,-78"/>
</g>
<g id="clust5" class="cluster">
<title>cluster_AlertModule_exports</title>
<polygon fill="none" stroke="#000000" points="16,-214 16,-266 146,-266 146,-214 16,-214"/>
</g>
<g id="clust8" class="cluster">
<title>cluster_ConfigurationSummaryModule</title>
<polygon fill="none" stroke="#000000" stroke-dasharray="1,5" points="886,-70 886,-274 1300,-274 1300,-70 886,-70"/>
</g>
<g id="clust9" class="cluster">
<title>cluster_ConfigurationSummaryModule_declarations</title>
<polygon fill="none" stroke="#000000" points="894,-78 894,-130 1168,-130 1168,-78 894,-78"/>
</g>
<g id="clust11" class="cluster">
<title>cluster_ConfigurationSummaryModule_imports</title>
<polygon fill="none" stroke="#000000" points="1176,-78 1176,-130 1292,-130 1292,-78 1176,-78"/>
</g>
<g id="clust12" class="cluster">
<title>cluster_ConfigurationSummaryModule_exports</title>
<polygon fill="none" stroke="#000000" points="1014,-214 1014,-266 1292,-266 1292,-214 1014,-214"/>
</g>
<g id="clust15" class="cluster">
<title>cluster_ConstraintRuleModule</title>
<polygon fill="none" stroke="#000000" stroke-dasharray="1,5" points="162,-138 162,-342 878,-342 878,-138 162,-138"/>
</g>
<g id="clust16" class="cluster">
<title>cluster_ConstraintRuleModule_declarations</title>
<polygon fill="none" stroke="#000000" points="175,-146 175,-198 755,-198 755,-146 175,-146"/>
</g>
<g id="clust21" class="cluster">
<title>cluster_ConstraintRuleModule_exports</title>
<polygon fill="none" stroke="#000000" points="170,-282 170,-334 870,-334 870,-282 170,-282"/>
</g>
<g id="clust24" class="cluster">
<title>cluster_DataFilterModule</title>
<polygon fill="none" stroke="#000000" stroke-dasharray="1,5" points="4543,-70 4543,-274 4717,-274 4717,-70 4543,-70"/>
</g>
<g id="clust25" class="cluster">
<title>cluster_DataFilterModule_declarations</title>
<polygon fill="none" stroke="#000000" points="4553,-78 4553,-130 4707,-130 4707,-78 4553,-78"/>
</g>
<g id="clust28" class="cluster">
<title>cluster_DataFilterModule_exports</title>
<polygon fill="none" stroke="#000000" points="4551,-214 4551,-266 4709,-266 4709,-214 4551,-214"/>
</g>
<g id="clust31" class="cluster">
<title>cluster_DirectivesModule</title>
<polygon fill="none" stroke="#000000" stroke-dasharray="1,5" points="4725,-70 4725,-274 4891,-274 4891,-70 4725,-70"/>
</g>
<g id="clust32" class="cluster">
<title>cluster_DirectivesModule_declarations</title>
<polygon fill="none" stroke="#000000" points="4736,-78 4736,-130 4882,-130 4882,-78 4736,-78"/>
</g>
<g id="clust35" class="cluster">
<title>cluster_DirectivesModule_exports</title>
<polygon fill="none" stroke="#000000" points="4733,-214 4733,-266 4883,-266 4883,-214 4733,-214"/>
</g>
<g id="clust38" class="cluster">
<title>cluster_LoginFormModule</title>
<polygon fill="none" stroke="#000000" stroke-dasharray="1,5" points="5065,-70 5065,-274 5245,-274 5245,-70 5065,-70"/>
</g>
<g id="clust39" class="cluster">
<title>cluster_LoginFormModule_declarations</title>
<polygon fill="none" stroke="#000000" points="5074,-78 5074,-130 5236,-130 5236,-78 5074,-78"/>
</g>
<g id="clust42" class="cluster">
<title>cluster_LoginFormModule_exports</title>
<polygon fill="none" stroke="#000000" points="5073,-214 5073,-266 5237,-266 5237,-214 5073,-214"/>
</g>
<g id="clust45" class="cluster">
<title>cluster_PipesModule</title>
<polygon fill="none" stroke="#000000" stroke-dasharray="1,5" points="5253,-70 5253,-274 5419,-274 5419,-70 5253,-70"/>
</g>
<g id="clust46" class="cluster">
<title>cluster_PipesModule_declarations</title>
<polygon fill="none" stroke="#000000" points="5263,-78 5263,-130 5409,-130 5409,-78 5263,-78"/>
</g>
<g id="clust49" class="cluster">
<title>cluster_PipesModule_exports</title>
<polygon fill="none" stroke="#000000" points="5261,-214 5261,-266 5411,-266 5411,-214 5261,-214"/>
</g>
<g id="clust52" class="cluster">
<title>cluster_PricingModule</title>
<polygon fill="none" stroke="#000000" stroke-dasharray="1,5" points="1308,-138 1308,-206 4379,-206 4379,-138 1308,-138"/>
</g>
<g id="clust53" class="cluster">
<title>cluster_PricingModule_declarations</title>
<polygon fill="none" stroke="#000000" points="2866,-146 2866,-198 4371,-198 4371,-146 2866,-146"/>
</g>
<g id="clust66" class="cluster">
<title>cluster_PricingModule_exports</title>
<polygon fill="none" stroke="#000000" points="1316,-146 1316,-198 2858,-198 2858,-146 1316,-146"/>
</g>
<g id="clust69" class="cluster">
<title>cluster_ProductSearchModule</title>
<polygon fill="none" stroke="#000000" stroke-dasharray="1,5" points="4899,-214 4899,-266 5057,-266 5057,-214 4899,-214"/>
</g>
<g id="clust75" class="cluster">
<title>cluster_TableModule</title>
<polygon fill="none" stroke="#000000" stroke-dasharray="1,5" points="4387,-138 4387,-342 4535,-342 4535,-138 4387,-138"/>
</g>
<g id="clust76" class="cluster">
<title>cluster_TableModule_declarations</title>
<polygon fill="none" stroke="#000000" points="4395,-146 4395,-198 4525,-198 4525,-146 4395,-146"/>
</g>
<g id="clust79" class="cluster">
<title>cluster_TableModule_exports</title>
<polygon fill="none" stroke="#000000" points="4395,-282 4395,-334 4527,-334 4527,-282 4395,-282"/>
</g>
<!-- AlertComponent -->
<g id="node1" class="node">
<title>AlertComponent</title>
<polygon fill="#ffffb3" stroke="#000000" points="137.0954,-122 26.9046,-122 26.9046,-86 137.0954,-86 137.0954,-122"/>
<text text-anchor="middle" x="82" y="-99.8" font-family="Times,serif" font-size="14.00" fill="#000000">AlertComponent</text>
</g>
<!-- AlertModule -->
<g id="node2" class="node">
<title>AlertModule</title>
<polygon fill="#8dd3c7" stroke="#000000" points="126.3134,-190 123.3134,-194 102.3134,-194 99.3134,-190 37.6866,-190 37.6866,-154 126.3134,-154 126.3134,-190"/>
<text text-anchor="middle" x="82" y="-167.8" font-family="Times,serif" font-size="14.00" fill="#000000">AlertModule</text>
</g>
<!-- AlertComponent&#45;&gt;AlertModule -->
<g id="edge1" class="edge">
<title>AlertComponent&#45;&gt;AlertModule</title>
<path fill="none" stroke="#000000" d="M82,-122.2228C82,-122.2228 82,-143.7269 82,-143.7269"/>
<polygon fill="#000000" stroke="#000000" points="78.5001,-143.7269 82,-153.7269 85.5001,-143.727 78.5001,-143.7269"/>
</g>
<!-- AlertComponent  -->
<g id="node3" class="node">
<title>AlertComponent </title>
<polygon fill="#fb8072" stroke="#000000" points="137.5961,-258 24.4039,-258 24.4039,-222 137.5961,-222 137.5961,-258"/>
<text text-anchor="middle" x="81" y="-235.8" font-family="Times,serif" font-size="14.00" fill="#000000">AlertComponent </text>
</g>
<!-- AlertModule&#45;&gt;AlertComponent  -->
<g id="edge2" class="edge">
<title>AlertModule&#45;&gt;AlertComponent </title>
<path fill="none" stroke="#000000" stroke-dasharray="5,2" d="M82,-190.2228C82,-190.2228 82,-211.7269 82,-211.7269"/>
<polygon fill="#000000" stroke="#000000" points="78.5001,-211.7269 82,-221.7269 85.5001,-211.727 78.5001,-211.7269"/>
</g>
<!-- ConstraintRuleModule -->
<g id="node11" class="node">
<title>ConstraintRuleModule</title>
<polygon fill="#8dd3c7" stroke="#000000" points="579.3202,-258 576.3202,-262 555.3202,-262 552.3202,-258 434.6798,-258 434.6798,-222 579.3202,-222 579.3202,-258"/>
<text text-anchor="middle" x="507" y="-235.8" font-family="Times,serif" font-size="14.00" fill="#000000">ConstraintRuleModule</text>
</g>
<!-- AlertModule&#45;&gt;ConstraintRuleModule -->
<g id="edge9" class="edge">
<title>AlertModule&#45;&gt;ConstraintRuleModule</title>
<path fill="none" stroke="#000000" d="M126.536,-172C143.0372,-172 157.8075,-172 157.8075,-172 157.8075,-172 157.8075,-240 157.8075,-240 157.8075,-240 424.6471,-240 424.6471,-240"/>
<polygon fill="#000000" stroke="#000000" points="424.6471,-243.5001 434.6471,-240 424.6471,-236.5001 424.6471,-243.5001"/>
</g>
<!-- ProductConfigurationSummaryComponent -->
<g id="node4" class="node">
<title>ProductConfigurationSummaryComponent</title>
<polygon fill="#ffffb3" stroke="#000000" points="1159.864,-122 902.136,-122 902.136,-86 1159.864,-86 1159.864,-122"/>
<text text-anchor="middle" x="1031" y="-99.8" font-family="Times,serif" font-size="14.00" fill="#000000">ProductConfigurationSummaryComponent</text>
</g>
<!-- ConfigurationSummaryModule -->
<g id="node5" class="node">
<title>ConfigurationSummaryModule</title>
<polygon fill="#8dd3c7" stroke="#000000" points="1270.0336,-190 1267.0336,-194 1246.0336,-194 1243.0336,-190 1077.9664,-190 1077.9664,-154 1270.0336,-154 1270.0336,-190"/>
<text text-anchor="middle" x="1174" y="-167.8" font-family="Times,serif" font-size="14.00" fill="#000000">ConfigurationSummaryModule</text>
</g>
<!-- ProductConfigurationSummaryComponent&#45;&gt;ConfigurationSummaryModule -->
<g id="edge3" class="edge">
<title>ProductConfigurationSummaryComponent&#45;&gt;ConfigurationSummaryModule</title>
<path fill="none" stroke="#000000" d="M1118.8328,-122.2228C1118.8328,-122.2228 1118.8328,-143.7269 1118.8328,-143.7269"/>
<polygon fill="#000000" stroke="#000000" points="1115.3328,-143.7269 1118.8328,-153.7269 1122.3328,-143.727 1115.3328,-143.7269"/>
</g>
<!-- ProductConfigurationSummaryComponent  -->
<g id="node7" class="node">
<title>ProductConfigurationSummaryComponent </title>
<polygon fill="#fb8072" stroke="#000000" points="1283.8643,-258 1022.1357,-258 1022.1357,-222 1283.8643,-222 1283.8643,-258"/>
<text text-anchor="middle" x="1153" y="-235.8" font-family="Times,serif" font-size="14.00" fill="#000000">ProductConfigurationSummaryComponent </text>
</g>
<!-- ConfigurationSummaryModule&#45;&gt;ProductConfigurationSummaryComponent  -->
<g id="edge5" class="edge">
<title>ConfigurationSummaryModule&#45;&gt;ProductConfigurationSummaryComponent </title>
<path fill="none" stroke="#000000" stroke-dasharray="5,2" d="M1174,-190.2228C1174,-190.2228 1174,-211.7269 1174,-211.7269"/>
<polygon fill="#000000" stroke="#000000" points="1170.5001,-211.7269 1174,-221.7269 1177.5001,-211.727 1170.5001,-211.7269"/>
</g>
<!-- TableModule -->
<g id="node52" class="node">
<title>TableModule</title>
<polygon fill="#8dd3c7" stroke="#000000" points="4505.9232,-258 4502.9232,-262 4481.9232,-262 4478.9232,-258 4414.0768,-258 4414.0768,-222 4505.9232,-222 4505.9232,-258"/>
<text text-anchor="middle" x="4460" y="-235.8" font-family="Times,serif" font-size="14.00" fill="#000000">TableModule</text>
</g>
<!-- ConfigurationSummaryModule&#45;&gt;TableModule -->
<g id="edge46" class="edge">
<title>ConfigurationSummaryModule&#45;&gt;TableModule</title>
<path fill="none" stroke="#000000" d="M1270.2992,-178C1289.6382,-178 1304.1566,-178 1304.1566,-178 1304.1566,-178 1304.1566,-240 1304.1566,-240 1304.1566,-240 4404.1715,-240 4404.1715,-240"/>
<polygon fill="#000000" stroke="#000000" points="4404.1715,-243.5001 4414.1715,-240 4404.1715,-236.5001 4404.1715,-243.5001"/>
</g>
<!-- PricingModule -->
<g id="node6" class="node">
<title>PricingModule</title>
<polygon fill="#8dd3c7" stroke="#000000" points="1283.9888,-122 1280.9888,-126 1259.9888,-126 1256.9888,-122 1184.0112,-122 1184.0112,-86 1283.9888,-86 1283.9888,-122"/>
<text text-anchor="middle" x="1234" y="-99.8" font-family="Times,serif" font-size="14.00" fill="#000000">PricingModule</text>
</g>
<!-- PricingModule&#45;&gt;ConfigurationSummaryModule -->
<g id="edge4" class="edge">
<title>PricingModule&#45;&gt;ConfigurationSummaryModule</title>
<path fill="none" stroke="#000000" d="M1227.1361,-122.2228C1227.1361,-122.2228 1227.1361,-143.7269 1227.1361,-143.7269"/>
<polygon fill="#000000" stroke="#000000" points="1223.6361,-143.7269 1227.1361,-153.7269 1230.6361,-143.727 1223.6361,-143.7269"/>
</g>
<!-- AttributeValuePricePipe  -->
<g id="node39" class="node">
<title>AttributeValuePricePipe </title>
<polygon fill="#fb8072" stroke="#000000" points="2849.6214,-190 2692.3786,-190 2692.3786,-154 2849.6214,-154 2849.6214,-190"/>
<text text-anchor="middle" x="2771" y="-167.8" font-family="Times,serif" font-size="14.00" fill="#000000">AttributeValuePricePipe </text>
</g>
<!-- PricingModule&#45;&gt;AttributeValuePricePipe  -->
<g id="edge33" class="edge">
<title>PricingModule&#45;&gt;AttributeValuePricePipe </title>
<path fill="none" stroke="#000000" stroke-dasharray="5,2" d="M1284.2649,-106C1549.1567,-106 2771,-106 2771,-106 2771,-106 2771,-143.9652 2771,-143.9652"/>
<polygon fill="#000000" stroke="#000000" points="2767.5001,-143.9652 2771,-153.9652 2774.5001,-143.9652 2767.5001,-143.9652"/>
</g>
<!-- CartItemPricePipe  -->
<g id="node40" class="node">
<title>CartItemPricePipe </title>
<polygon fill="#fb8072" stroke="#000000" points="2674.4096,-190 2551.5904,-190 2551.5904,-154 2674.4096,-154 2674.4096,-190"/>
<text text-anchor="middle" x="2613" y="-167.8" font-family="Times,serif" font-size="14.00" fill="#000000">CartItemPricePipe </text>
</g>
<!-- PricingModule&#45;&gt;CartItemPricePipe  -->
<g id="edge34" class="edge">
<title>PricingModule&#45;&gt;CartItemPricePipe </title>
<path fill="none" stroke="#000000" stroke-dasharray="5,2" d="M1284.3036,-108C1532.3129,-108 2613,-108 2613,-108 2613,-108 2613,-143.8314 2613,-143.8314"/>
<polygon fill="#000000" stroke="#000000" points="2609.5001,-143.8313 2613,-153.8314 2616.5001,-143.8314 2609.5001,-143.8313"/>
</g>
<!-- CartPricePipe  -->
<g id="node41" class="node">
<title>CartPricePipe </title>
<polygon fill="#fb8072" stroke="#000000" points="2533.7535,-190 2436.2465,-190 2436.2465,-154 2533.7535,-154 2533.7535,-190"/>
<text text-anchor="middle" x="2485" y="-167.8" font-family="Times,serif" font-size="14.00" fill="#000000">CartPricePipe </text>
</g>
<!-- PricingModule&#45;&gt;CartPricePipe  -->
<g id="edge35" class="edge">
<title>PricingModule&#45;&gt;CartPricePipe </title>
<path fill="none" stroke="#000000" stroke-dasharray="5,2" d="M1284.2007,-109C1517.5582,-109 2485,-109 2485,-109 2485,-109 2485,-143.7778 2485,-143.7778"/>
<polygon fill="#000000" stroke="#000000" points="2481.5001,-143.7778 2485,-153.7778 2488.5001,-143.7778 2481.5001,-143.7778"/>
</g>
<!-- LineItemPricePipe  -->
<g id="node42" class="node">
<title>LineItemPricePipe </title>
<polygon fill="#fb8072" stroke="#000000" points="2418.4659,-190 2293.5341,-190 2293.5341,-154 2418.4659,-154 2418.4659,-190"/>
<text text-anchor="middle" x="2356" y="-167.8" font-family="Times,serif" font-size="14.00" fill="#000000">LineItemPricePipe </text>
</g>
<!-- PricingModule&#45;&gt;LineItemPricePipe  -->
<g id="edge36" class="edge">
<title>PricingModule&#45;&gt;LineItemPricePipe </title>
<path fill="none" stroke="#000000" stroke-dasharray="5,2" d="M1284.0236,-111C1501.7558,-111 2356,-111 2356,-111 2356,-111 2356,-143.698 2356,-143.698"/>
<polygon fill="#000000" stroke="#000000" points="2352.5001,-143.698 2356,-153.698 2359.5001,-143.698 2352.5001,-143.698"/>
</g>
<!-- LocalCurrencyPipe  -->
<g id="node43" class="node">
<title>LocalCurrencyPipe </title>
<polygon fill="#fb8072" stroke="#000000" points="2276.3477,-190 2147.6523,-190 2147.6523,-154 2276.3477,-154 2276.3477,-190"/>
<text text-anchor="middle" x="2212" y="-167.8" font-family="Times,serif" font-size="14.00" fill="#000000">LocalCurrencyPipe </text>
</g>
<!-- PricingModule&#45;&gt;LocalCurrencyPipe  -->
<g id="edge37" class="edge">
<title>PricingModule&#45;&gt;LocalCurrencyPipe </title>
<path fill="none" stroke="#000000" stroke-dasharray="5,2" d="M1284.1824,-113C1483.9654,-113 2212,-113 2212,-113 2212,-113 2212,-143.9775 2212,-143.9775"/>
<polygon fill="#000000" stroke="#000000" points="2208.5001,-143.9774 2212,-153.9775 2215.5001,-143.9775 2208.5001,-143.9774"/>
</g>
<!-- OptionPricePipe  -->
<g id="node44" class="node">
<title>OptionPricePipe </title>
<polygon fill="#fb8072" stroke="#000000" points="2130.0386,-190 2017.9614,-190 2017.9614,-154 2130.0386,-154 2130.0386,-190"/>
<text text-anchor="middle" x="2074" y="-167.8" font-family="Times,serif" font-size="14.00" fill="#000000">OptionPricePipe </text>
</g>
<!-- PricingModule&#45;&gt;OptionPricePipe  -->
<g id="edge38" class="edge">
<title>PricingModule&#45;&gt;OptionPricePipe </title>
<path fill="none" stroke="#000000" stroke-dasharray="5,2" d="M1284.0303,-114C1464.8667,-114 2074,-114 2074,-114 2074,-114 2074,-143.9664 2074,-143.9664"/>
<polygon fill="#000000" stroke="#000000" points="2070.5001,-143.9663 2074,-153.9664 2077.5001,-143.9664 2070.5001,-143.9663"/>
</g>
<!-- OrderLineItemPricePipe  -->
<g id="node45" class="node">
<title>OrderLineItemPricePipe </title>
<polygon fill="#fb8072" stroke="#000000" points="1999.6074,-190 1842.3926,-190 1842.3926,-154 1999.6074,-154 1999.6074,-190"/>
<text text-anchor="middle" x="1921" y="-167.8" font-family="Times,serif" font-size="14.00" fill="#000000">OrderLineItemPricePipe </text>
</g>
<!-- PricingModule&#45;&gt;OrderLineItemPricePipe  -->
<g id="edge39" class="edge">
<title>PricingModule&#45;&gt;OrderLineItemPricePipe </title>
<path fill="none" stroke="#000000" stroke-dasharray="5,2" d="M1284.2384,-116C1442.6113,-116 1921,-116 1921,-116 1921,-116 1921,-143.973 1921,-143.973"/>
<polygon fill="#000000" stroke="#000000" points="1917.5001,-143.973 1921,-153.973 1924.5001,-143.973 1917.5001,-143.973"/>
</g>
<!-- OrderPricePipe  -->
<g id="node46" class="node">
<title>OrderPricePipe </title>
<polygon fill="#fb8072" stroke="#000000" points="1824.7934,-190 1719.2066,-190 1719.2066,-154 1824.7934,-154 1824.7934,-190"/>
<text text-anchor="middle" x="1772" y="-167.8" font-family="Times,serif" font-size="14.00" fill="#000000">OrderPricePipe </text>
</g>
<!-- PricingModule&#45;&gt;OrderPricePipe  -->
<g id="edge40" class="edge">
<title>PricingModule&#45;&gt;OrderPricePipe </title>
<path fill="none" stroke="#000000" stroke-dasharray="5,2" d="M1284.1306,-118C1417.6892,-118 1772,-118 1772,-118 1772,-118 1772,-143.7181 1772,-143.7181"/>
<polygon fill="#000000" stroke="#000000" points="1768.5001,-143.718 1772,-153.7181 1775.5001,-143.7181 1768.5001,-143.718"/>
</g>
<!-- PriceMatrixFilter  -->
<g id="node47" class="node">
<title>PriceMatrixFilter </title>
<polygon fill="#fb8072" stroke="#000000" points="1701.194,-190 1584.806,-190 1584.806,-154 1701.194,-154 1701.194,-190"/>
<text text-anchor="middle" x="1643" y="-167.8" font-family="Times,serif" font-size="14.00" fill="#000000">PriceMatrixFilter </text>
</g>
<!-- PricingModule&#45;&gt;PriceMatrixFilter  -->
<g id="edge41" class="edge">
<title>PricingModule&#45;&gt;PriceMatrixFilter </title>
<path fill="none" stroke="#000000" stroke-dasharray="5,2" d="M1284.1514,-119C1393.3662,-119 1643,-119 1643,-119 1643,-119 1643,-143.7604 1643,-143.7604"/>
<polygon fill="#000000" stroke="#000000" points="1639.5001,-143.7604 1643,-153.7604 1646.5001,-143.7604 1639.5001,-143.7604"/>
</g>
<!-- ProductPricePipe  -->
<g id="node48" class="node">
<title>ProductPricePipe </title>
<polygon fill="#fb8072" stroke="#000000" points="1566.1996,-190 1449.8004,-190 1449.8004,-154 1566.1996,-154 1566.1996,-190"/>
<text text-anchor="middle" x="1508" y="-167.8" font-family="Times,serif" font-size="14.00" fill="#000000">ProductPricePipe </text>
</g>
<!-- PricingModule&#45;&gt;ProductPricePipe  -->
<g id="edge42" class="edge">
<title>PricingModule&#45;&gt;ProductPricePipe </title>
<path fill="none" stroke="#000000" stroke-dasharray="5,2" d="M1284.2558,-121C1363.3573,-121 1508,-121 1508,-121 1508,-121 1508,-143.8757 1508,-143.8757"/>
<polygon fill="#000000" stroke="#000000" points="1504.5001,-143.8757 1508,-153.8757 1511.5001,-143.8757 1504.5001,-143.8757"/>
</g>
<!-- QuotePricePipe  -->
<g id="node49" class="node">
<title>QuotePricePipe </title>
<polygon fill="#fb8072" stroke="#000000" points="1431.8632,-190 1324.1368,-190 1324.1368,-154 1431.8632,-154 1431.8632,-190"/>
<text text-anchor="middle" x="1378" y="-167.8" font-family="Times,serif" font-size="14.00" fill="#000000">QuotePricePipe </text>
</g>
<!-- PricingModule&#45;&gt;QuotePricePipe  -->
<g id="edge43" class="edge">
<title>PricingModule&#45;&gt;QuotePricePipe </title>
<path fill="none" stroke="#000000" stroke-dasharray="5,2" d="M1276.9743,-122.2667C1276.9743,-140.5552 1276.9743,-166 1276.9743,-166 1276.9743,-166 1314.2334,-166 1314.2334,-166"/>
<polygon fill="#000000" stroke="#000000" points="1314.2335,-169.5001 1324.2334,-166 1314.2334,-162.5001 1314.2335,-169.5001"/>
</g>
<!-- CRIconComponent -->
<g id="node8" class="node">
<title>CRIconComponent</title>
<polygon fill="#ffffb3" stroke="#000000" points="747.3809,-190 622.6191,-190 622.6191,-154 747.3809,-154 747.3809,-190"/>
<text text-anchor="middle" x="685" y="-167.8" font-family="Times,serif" font-size="14.00" fill="#000000">CRIconComponent</text>
</g>
<!-- CRIconComponent&#45;&gt;ConstraintRuleModule -->
<g id="edge6" class="edge">
<title>CRIconComponent&#45;&gt;ConstraintRuleModule</title>
<path fill="none" stroke="#000000" d="M706.2301,-190.0225C706.2301,-207.3734 706.2301,-231 706.2301,-231 706.2301,-231 589.2083,-231 589.2083,-231"/>
<polygon fill="#000000" stroke="#000000" points="589.2084,-227.5001 579.2083,-231 589.2083,-234.5001 589.2084,-227.5001"/>
</g>
<!-- ConstraintRuleAlertComponent -->
<g id="node9" class="node">
<title>ConstraintRuleAlertComponent</title>
<polygon fill="#ffffb3" stroke="#000000" points="604.3654,-190 409.6346,-190 409.6346,-154 604.3654,-154 604.3654,-190"/>
<text text-anchor="middle" x="507" y="-167.8" font-family="Times,serif" font-size="14.00" fill="#000000">ConstraintRuleAlertComponent</text>
</g>
<!-- ConstraintRuleAlertComponent&#45;&gt;ConstraintRuleModule -->
<g id="edge7" class="edge">
<title>ConstraintRuleAlertComponent&#45;&gt;ConstraintRuleModule</title>
<path fill="none" stroke="#000000" d="M507,-190.2228C507,-190.2228 507,-211.7269 507,-211.7269"/>
<polygon fill="#000000" stroke="#000000" points="503.5001,-211.7269 507,-221.7269 510.5001,-211.727 503.5001,-211.7269"/>
</g>
<!-- ConstraintRuleSidebarComponent -->
<g id="node10" class="node">
<title>ConstraintRuleSidebarComponent</title>
<polygon fill="#ffffb3" stroke="#000000" points="391.3654,-190 182.6346,-190 182.6346,-154 391.3654,-154 391.3654,-190"/>
<text text-anchor="middle" x="287" y="-167.8" font-family="Times,serif" font-size="14.00" fill="#000000">ConstraintRuleSidebarComponent</text>
</g>
<!-- ConstraintRuleSidebarComponent&#45;&gt;ConstraintRuleModule -->
<g id="edge8" class="edge">
<title>ConstraintRuleSidebarComponent&#45;&gt;ConstraintRuleModule</title>
<path fill="none" stroke="#000000" d="M320.9776,-190.0225C320.9776,-207.3734 320.9776,-231 320.9776,-231 320.9776,-231 424.8126,-231 424.8126,-231"/>
<polygon fill="#000000" stroke="#000000" points="424.8127,-234.5001 434.8126,-231 424.8126,-227.5001 424.8127,-234.5001"/>
</g>
<!-- AlertModule  -->
<g id="node12" class="node">
<title>AlertModule </title>
<polygon fill="#fb8072" stroke="#000000" points="861.813,-326 770.187,-326 770.187,-290 861.813,-290 861.813,-326"/>
<text text-anchor="middle" x="816" y="-303.8" font-family="Times,serif" font-size="14.00" fill="#000000">AlertModule </text>
</g>
<!-- ConstraintRuleModule&#45;&gt;AlertModule  -->
<g id="edge10" class="edge">
<title>ConstraintRuleModule&#45;&gt;AlertModule </title>
<path fill="none" stroke="#000000" stroke-dasharray="5,2" d="M579.4468,-240C670.7779,-240 816,-240 816,-240 816,-240 816,-279.7772 816,-279.7772"/>
<polygon fill="#000000" stroke="#000000" points="812.5001,-279.7772 816,-289.7772 819.5001,-279.7773 812.5001,-279.7772"/>
</g>
<!-- CRIconComponent  -->
<g id="node13" class="node">
<title>CRIconComponent </title>
<polygon fill="#fb8072" stroke="#000000" points="752.3814,-326 623.6186,-326 623.6186,-290 752.3814,-290 752.3814,-326"/>
<text text-anchor="middle" x="688" y="-303.8" font-family="Times,serif" font-size="14.00" fill="#000000">CRIconComponent </text>
</g>
<!-- ConstraintRuleModule&#45;&gt;CRIconComponent  -->
<g id="edge11" class="edge">
<title>ConstraintRuleModule&#45;&gt;CRIconComponent </title>
<path fill="none" stroke="#000000" stroke-dasharray="5,2" d="M579.5351,-249C621.0759,-249 665.0199,-249 665.0199,-249 665.0199,-249 665.0199,-279.9775 665.0199,-279.9775"/>
<polygon fill="#000000" stroke="#000000" points="661.52,-279.9774 665.0199,-289.9775 668.52,-279.9775 661.52,-279.9774"/>
</g>
<!-- ConstraintRuleAlertComponent  -->
<g id="node14" class="node">
<title>ConstraintRuleAlertComponent </title>
<polygon fill="#fb8072" stroke="#000000" points="606.3657,-326 407.6343,-326 407.6343,-290 606.3657,-290 606.3657,-326"/>
<text text-anchor="middle" x="507" y="-303.8" font-family="Times,serif" font-size="14.00" fill="#000000">ConstraintRuleAlertComponent </text>
</g>
<!-- ConstraintRuleModule&#45;&gt;ConstraintRuleAlertComponent  -->
<g id="edge12" class="edge">
<title>ConstraintRuleModule&#45;&gt;ConstraintRuleAlertComponent </title>
<path fill="none" stroke="#000000" stroke-dasharray="5,2" d="M507,-258.2228C507,-258.2228 507,-279.7269 507,-279.7269"/>
<polygon fill="#000000" stroke="#000000" points="503.5001,-279.7269 507,-289.7269 510.5001,-279.727 503.5001,-279.7269"/>
</g>
<!-- ConstraintRuleSidebarComponent  -->
<g id="node15" class="node">
<title>ConstraintRuleSidebarComponent </title>
<polygon fill="#fb8072" stroke="#000000" points="390.3657,-326 177.6343,-326 177.6343,-290 390.3657,-290 390.3657,-326"/>
<text text-anchor="middle" x="284" y="-303.8" font-family="Times,serif" font-size="14.00" fill="#000000">ConstraintRuleSidebarComponent </text>
</g>
<!-- ConstraintRuleModule&#45;&gt;ConstraintRuleSidebarComponent  -->
<g id="edge13" class="edge">
<title>ConstraintRuleModule&#45;&gt;ConstraintRuleSidebarComponent </title>
<path fill="none" stroke="#000000" stroke-dasharray="5,2" d="M434.5447,-249C359.0883,-249 251.7724,-249 251.7724,-249 251.7724,-249 251.7724,-279.9775 251.7724,-279.9775"/>
<polygon fill="#000000" stroke="#000000" points="248.2725,-279.9774 251.7724,-289.9775 255.2725,-279.9775 248.2725,-279.9774"/>
</g>
<!-- DataFilterComponent -->
<g id="node16" class="node">
<title>DataFilterComponent</title>
<polygon fill="#ffffb3" stroke="#000000" points="4699.0884,-122 4560.9116,-122 4560.9116,-86 4699.0884,-86 4699.0884,-122"/>
<text text-anchor="middle" x="4630" y="-99.8" font-family="Times,serif" font-size="14.00" fill="#000000">DataFilterComponent</text>
</g>
<!-- DataFilterModule -->
<g id="node17" class="node">
<title>DataFilterModule</title>
<polygon fill="#8dd3c7" stroke="#000000" points="4688.3062,-190 4685.3062,-194 4664.3062,-194 4661.3062,-190 4571.6938,-190 4571.6938,-154 4688.3062,-154 4688.3062,-190"/>
<text text-anchor="middle" x="4630" y="-167.8" font-family="Times,serif" font-size="14.00" fill="#000000">DataFilterModule</text>
</g>
<!-- DataFilterComponent&#45;&gt;DataFilterModule -->
<g id="edge14" class="edge">
<title>DataFilterComponent&#45;&gt;DataFilterModule</title>
<path fill="none" stroke="#000000" d="M4630,-122.2228C4630,-122.2228 4630,-143.7269 4630,-143.7269"/>
<polygon fill="#000000" stroke="#000000" points="4626.5001,-143.7269 4630,-153.7269 4633.5001,-143.727 4626.5001,-143.7269"/>
</g>
<!-- DataFilterComponent  -->
<g id="node18" class="node">
<title>DataFilterComponent </title>
<polygon fill="#fb8072" stroke="#000000" points="4700.589,-258 4559.411,-258 4559.411,-222 4700.589,-222 4700.589,-258"/>
<text text-anchor="middle" x="4630" y="-235.8" font-family="Times,serif" font-size="14.00" fill="#000000">DataFilterComponent </text>
</g>
<!-- DataFilterModule&#45;&gt;DataFilterComponent  -->
<g id="edge15" class="edge">
<title>DataFilterModule&#45;&gt;DataFilterComponent </title>
<path fill="none" stroke="#000000" stroke-dasharray="5,2" d="M4630,-190.2228C4630,-190.2228 4630,-211.7269 4630,-211.7269"/>
<polygon fill="#000000" stroke="#000000" points="4626.5001,-211.7269 4630,-221.7269 4633.5001,-211.727 4626.5001,-211.7269"/>
</g>
<!-- AutoFocusDirective -->
<g id="node19" class="node">
<title>AutoFocusDirective</title>
<polygon fill="#ffffb3" stroke="#000000" points="4873.5227,-122 4744.4773,-122 4744.4773,-86 4873.5227,-86 4873.5227,-122"/>
<text text-anchor="middle" x="4809" y="-99.8" font-family="Times,serif" font-size="14.00" fill="#000000">AutoFocusDirective</text>
</g>
<!-- DirectivesModule -->
<g id="node20" class="node">
<title>DirectivesModule</title>
<polygon fill="#8dd3c7" stroke="#000000" points="4867.5772,-190 4864.5772,-194 4843.5772,-194 4840.5772,-190 4750.4228,-190 4750.4228,-154 4867.5772,-154 4867.5772,-190"/>
<text text-anchor="middle" x="4809" y="-167.8" font-family="Times,serif" font-size="14.00" fill="#000000">DirectivesModule</text>
</g>
<!-- AutoFocusDirective&#45;&gt;DirectivesModule -->
<g id="edge16" class="edge">
<title>AutoFocusDirective&#45;&gt;DirectivesModule</title>
<path fill="none" stroke="#000000" d="M4809,-122.2228C4809,-122.2228 4809,-143.7269 4809,-143.7269"/>
<polygon fill="#000000" stroke="#000000" points="4805.5001,-143.7269 4809,-153.7269 4812.5001,-143.727 4805.5001,-143.7269"/>
</g>
<!-- AutoFocusDirective  -->
<g id="node21" class="node">
<title>AutoFocusDirective </title>
<polygon fill="#fb8072" stroke="#000000" points="4874.5218,-258 4741.4782,-258 4741.4782,-222 4874.5218,-222 4874.5218,-258"/>
<text text-anchor="middle" x="4808" y="-235.8" font-family="Times,serif" font-size="14.00" fill="#000000">AutoFocusDirective </text>
</g>
<!-- DirectivesModule&#45;&gt;AutoFocusDirective  -->
<g id="edge17" class="edge">
<title>DirectivesModule&#45;&gt;AutoFocusDirective </title>
<path fill="none" stroke="#000000" stroke-dasharray="5,2" d="M4809,-190.2228C4809,-190.2228 4809,-211.7269 4809,-211.7269"/>
<polygon fill="#000000" stroke="#000000" points="4805.5001,-211.7269 4809,-221.7269 4812.5001,-211.727 4805.5001,-211.7269"/>
</g>
<!-- ProductSearchModule -->
<g id="node50" class="node">
<title>ProductSearchModule</title>
<polygon fill="#8dd3c7" stroke="#000000" points="5048.6853,-258 5045.6853,-262 5024.6853,-262 5021.6853,-258 4907.3147,-258 4907.3147,-222 5048.6853,-222 5048.6853,-258"/>
<text text-anchor="middle" x="4978" y="-235.8" font-family="Times,serif" font-size="14.00" fill="#000000">ProductSearchModule</text>
</g>
<!-- DirectivesModule&#45;&gt;ProductSearchModule -->
<g id="edge44" class="edge">
<title>DirectivesModule&#45;&gt;ProductSearchModule</title>
<path fill="none" stroke="#000000" d="M4867.6337,-172C4916.4449,-172 4978,-172 4978,-172 4978,-172 4978,-211.7772 4978,-211.7772"/>
<polygon fill="#000000" stroke="#000000" points="4974.5001,-211.7772 4978,-221.7772 4981.5001,-211.7773 4974.5001,-211.7772"/>
</g>
<!-- LoginFormComponent -->
<g id="node22" class="node">
<title>LoginFormComponent</title>
<polygon fill="#ffffb3" stroke="#000000" points="5227.6094,-122 5082.3906,-122 5082.3906,-86 5227.6094,-86 5227.6094,-122"/>
<text text-anchor="middle" x="5155" y="-99.8" font-family="Times,serif" font-size="14.00" fill="#000000">LoginFormComponent</text>
</g>
<!-- LoginFormModule -->
<g id="node23" class="node">
<title>LoginFormModule</title>
<polygon fill="#8dd3c7" stroke="#000000" points="5216.8272,-190 5213.8272,-194 5192.8272,-194 5189.8272,-190 5093.1728,-190 5093.1728,-154 5216.8272,-154 5216.8272,-190"/>
<text text-anchor="middle" x="5155" y="-167.8" font-family="Times,serif" font-size="14.00" fill="#000000">LoginFormModule</text>
</g>
<!-- LoginFormComponent&#45;&gt;LoginFormModule -->
<g id="edge18" class="edge">
<title>LoginFormComponent&#45;&gt;LoginFormModule</title>
<path fill="none" stroke="#000000" d="M5155,-122.2228C5155,-122.2228 5155,-143.7269 5155,-143.7269"/>
<polygon fill="#000000" stroke="#000000" points="5151.5001,-143.7269 5155,-153.7269 5158.5001,-143.727 5151.5001,-143.7269"/>
</g>
<!-- LoginFormComponent  -->
<g id="node24" class="node">
<title>LoginFormComponent </title>
<polygon fill="#fb8072" stroke="#000000" points="5229.1099,-258 5080.8901,-258 5080.8901,-222 5229.1099,-222 5229.1099,-258"/>
<text text-anchor="middle" x="5155" y="-235.8" font-family="Times,serif" font-size="14.00" fill="#000000">LoginFormComponent </text>
</g>
<!-- LoginFormModule&#45;&gt;LoginFormComponent  -->
<g id="edge19" class="edge">
<title>LoginFormModule&#45;&gt;LoginFormComponent </title>
<path fill="none" stroke="#000000" stroke-dasharray="5,2" d="M5155,-190.2228C5155,-190.2228 5155,-211.7269 5155,-211.7269"/>
<polygon fill="#000000" stroke="#000000" points="5151.5001,-211.7269 5155,-221.7269 5158.5001,-211.727 5151.5001,-211.7269"/>
</g>
<!-- SplitPascalCasePipe -->
<g id="node25" class="node">
<title>SplitPascalCasePipe</title>
<polygon fill="#ffffb3" stroke="#000000" points="5401.3146,-122 5270.6854,-122 5270.6854,-86 5401.3146,-86 5401.3146,-122"/>
<text text-anchor="middle" x="5336" y="-99.8" font-family="Times,serif" font-size="14.00" fill="#000000">SplitPascalCasePipe</text>
</g>
<!-- PipesModule -->
<g id="node26" class="node">
<title>PipesModule</title>
<polygon fill="#8dd3c7" stroke="#000000" points="5380.8823,-190 5377.8823,-194 5356.8823,-194 5353.8823,-190 5291.1177,-190 5291.1177,-154 5380.8823,-154 5380.8823,-190"/>
<text text-anchor="middle" x="5336" y="-167.8" font-family="Times,serif" font-size="14.00" fill="#000000">PipesModule</text>
</g>
<!-- SplitPascalCasePipe&#45;&gt;PipesModule -->
<g id="edge20" class="edge">
<title>SplitPascalCasePipe&#45;&gt;PipesModule</title>
<path fill="none" stroke="#000000" d="M5336,-122.2228C5336,-122.2228 5336,-143.7269 5336,-143.7269"/>
<polygon fill="#000000" stroke="#000000" points="5332.5001,-143.7269 5336,-153.7269 5339.5001,-143.727 5332.5001,-143.7269"/>
</g>
<!-- SplitPascalCasePipe  -->
<g id="node27" class="node">
<title>SplitPascalCasePipe </title>
<polygon fill="#fb8072" stroke="#000000" points="5402.8143,-258 5269.1857,-258 5269.1857,-222 5402.8143,-222 5402.8143,-258"/>
<text text-anchor="middle" x="5336" y="-235.8" font-family="Times,serif" font-size="14.00" fill="#000000">SplitPascalCasePipe </text>
</g>
<!-- PipesModule&#45;&gt;SplitPascalCasePipe  -->
<g id="edge21" class="edge">
<title>PipesModule&#45;&gt;SplitPascalCasePipe </title>
<path fill="none" stroke="#000000" stroke-dasharray="5,2" d="M5336,-190.2228C5336,-190.2228 5336,-211.7269 5336,-211.7269"/>
<polygon fill="#000000" stroke="#000000" points="5332.5001,-211.7269 5336,-221.7269 5339.5001,-211.727 5332.5001,-211.7269"/>
</g>
<!-- AttributeValuePricePipe -->
<g id="node28" class="node">
<title>AttributeValuePricePipe</title>
<polygon fill="#ffffb3" stroke="#000000" points="4362.6219,-190 4209.3781,-190 4209.3781,-154 4362.6219,-154 4362.6219,-190"/>
<text text-anchor="middle" x="4286" y="-167.8" font-family="Times,serif" font-size="14.00" fill="#000000">AttributeValuePricePipe</text>
</g>
<!-- AttributeValuePricePipe&#45;&gt;PricingModule -->
<g id="edge22" class="edge">
<title>AttributeValuePricePipe&#45;&gt;PricingModule</title>
<path fill="none" stroke="#000000" d="M4286,-153.7733C4286,-129.0682 4286,-88 4286,-88 4286,-88 1294.1127,-88 1294.1127,-88"/>
<polygon fill="#000000" stroke="#000000" points="1294.1127,-84.5001 1284.1127,-88 1294.1126,-91.5001 1294.1127,-84.5001"/>
</g>
<!-- CartItemPricePipe -->
<g id="node29" class="node">
<title>CartItemPricePipe</title>
<polygon fill="#ffffb3" stroke="#000000" points="4190.9103,-190 4071.0897,-190 4071.0897,-154 4190.9103,-154 4190.9103,-190"/>
<text text-anchor="middle" x="4131" y="-167.8" font-family="Times,serif" font-size="14.00" fill="#000000">CartItemPricePipe</text>
</g>
<!-- CartItemPricePipe&#45;&gt;PricingModule -->
<g id="edge23" class="edge">
<title>CartItemPricePipe&#45;&gt;PricingModule</title>
<path fill="none" stroke="#000000" d="M4131,-153.8015C4131,-129.6437 4131,-90 4131,-90 4131,-90 1294.2829,-90 1294.2829,-90"/>
<polygon fill="#000000" stroke="#000000" points="1294.2829,-86.5001 1284.2829,-90 1294.2828,-93.5001 1294.2829,-86.5001"/>
</g>
<!-- CartPricePipe -->
<g id="node30" class="node">
<title>CartPricePipe</title>
<polygon fill="#ffffb3" stroke="#000000" points="4052.7535,-190 3959.2465,-190 3959.2465,-154 4052.7535,-154 4052.7535,-190"/>
<text text-anchor="middle" x="4006" y="-167.8" font-family="Times,serif" font-size="14.00" fill="#000000">CartPricePipe</text>
</g>
<!-- CartPricePipe&#45;&gt;PricingModule -->
<g id="edge24" class="edge">
<title>CartPricePipe&#45;&gt;PricingModule</title>
<path fill="none" stroke="#000000" d="M4006,-153.6198C4006,-129.7215 4006,-91 4006,-91 4006,-91 1294.1808,-91 1294.1808,-91"/>
<polygon fill="#000000" stroke="#000000" points="1294.1809,-87.5001 1284.1808,-91 1294.1808,-94.5001 1294.1809,-87.5001"/>
</g>
<!-- LineItemPricePipe -->
<g id="node31" class="node">
<title>LineItemPricePipe</title>
<polygon fill="#ffffb3" stroke="#000000" points="3941.465,-190 3820.535,-190 3820.535,-154 3941.465,-154 3941.465,-190"/>
<text text-anchor="middle" x="3881" y="-167.8" font-family="Times,serif" font-size="14.00" fill="#000000">LineItemPricePipe</text>
</g>
<!-- LineItemPricePipe&#45;&gt;PricingModule -->
<g id="edge25" class="edge">
<title>LineItemPricePipe&#45;&gt;PricingModule</title>
<path fill="none" stroke="#000000" d="M3881,-153.6772C3881,-130.3398 3881,-93 3881,-93 3881,-93 1294.2221,-93 1294.2221,-93"/>
<polygon fill="#000000" stroke="#000000" points="1294.2222,-89.5001 1284.2221,-93 1294.2221,-96.5001 1294.2222,-89.5001"/>
</g>
<!-- LocalCurrencyPipe -->
<g id="node32" class="node">
<title>LocalCurrencyPipe</title>
<polygon fill="#ffffb3" stroke="#000000" points="3802.3473,-190 3677.6527,-190 3677.6527,-154 3802.3473,-154 3802.3473,-190"/>
<text text-anchor="middle" x="3740" y="-167.8" font-family="Times,serif" font-size="14.00" fill="#000000">LocalCurrencyPipe</text>
</g>
<!-- LocalCurrencyPipe&#45;&gt;PricingModule -->
<g id="edge26" class="edge">
<title>LocalCurrencyPipe&#45;&gt;PricingModule</title>
<path fill="none" stroke="#000000" d="M3740,-153.7521C3740,-130.9821 3740,-95 3740,-95 3740,-95 1294.0583,-95 1294.0583,-95"/>
<polygon fill="#000000" stroke="#000000" points="1294.0583,-91.5001 1284.0583,-95 1294.0583,-98.5001 1294.0583,-91.5001"/>
</g>
<!-- OptionPricePipe -->
<g id="node33" class="node">
<title>OptionPricePipe</title>
<polygon fill="#ffffb3" stroke="#000000" points="3659.0396,-190 3550.9604,-190 3550.9604,-154 3659.0396,-154 3659.0396,-190"/>
<text text-anchor="middle" x="3605" y="-167.8" font-family="Times,serif" font-size="14.00" fill="#000000">OptionPricePipe</text>
</g>
<!-- OptionPricePipe&#45;&gt;PricingModule -->
<g id="edge27" class="edge">
<title>OptionPricePipe&#45;&gt;PricingModule</title>
<path fill="none" stroke="#000000" d="M3605,-153.9891C3605,-131.5148 3605,-96 3605,-96 3605,-96 1294.0688,-96 1294.0688,-96"/>
<polygon fill="#000000" stroke="#000000" points="1294.0688,-92.5001 1284.0688,-96 1294.0687,-99.5001 1294.0688,-92.5001"/>
</g>
<!-- OrderLineItemPricePipe -->
<g id="node34" class="node">
<title>OrderLineItemPricePipe</title>
<polygon fill="#ffffb3" stroke="#000000" points="3532.6079,-190 3379.3921,-190 3379.3921,-154 3532.6079,-154 3532.6079,-190"/>
<text text-anchor="middle" x="3456" y="-167.8" font-family="Times,serif" font-size="14.00" fill="#000000">OrderLineItemPricePipe</text>
</g>
<!-- OrderLineItemPricePipe&#45;&gt;PricingModule -->
<g id="edge28" class="edge">
<title>OrderLineItemPricePipe&#45;&gt;PricingModule</title>
<path fill="none" stroke="#000000" d="M3456,-153.7079C3456,-131.7943 3456,-98 3456,-98 3456,-98 1294.0534,-98 1294.0534,-98"/>
<polygon fill="#000000" stroke="#000000" points="1294.0535,-94.5001 1284.0534,-98 1294.0534,-101.5001 1294.0535,-94.5001"/>
</g>
<!-- OrderPricePipe -->
<g id="node35" class="node">
<title>OrderPricePipe</title>
<polygon fill="#ffffb3" stroke="#000000" points="3361.2936,-190 3258.7064,-190 3258.7064,-154 3361.2936,-154 3361.2936,-190"/>
<text text-anchor="middle" x="3310" y="-167.8" font-family="Times,serif" font-size="14.00" fill="#000000">OrderPricePipe</text>
</g>
<!-- OrderPricePipe&#45;&gt;PricingModule -->
<g id="edge29" class="edge">
<title>OrderPricePipe&#45;&gt;PricingModule</title>
<path fill="none" stroke="#000000" d="M3310,-153.8314C3310,-132.502 3310,-100 3310,-100 3310,-100 1294.0328,-100 1294.0328,-100"/>
<polygon fill="#000000" stroke="#000000" points="1294.0329,-96.5001 1284.0328,-100 1294.0328,-103.5001 1294.0329,-96.5001"/>
</g>
<!-- PriceMatrixFilter -->
<g id="node36" class="node">
<title>PriceMatrixFilter</title>
<polygon fill="#ffffb3" stroke="#000000" points="3240.6938,-190 3127.3062,-190 3127.3062,-154 3240.6938,-154 3240.6938,-190"/>
<text text-anchor="middle" x="3184" y="-167.8" font-family="Times,serif" font-size="14.00" fill="#000000">PriceMatrixFilter</text>
</g>
<!-- PriceMatrixFilter&#45;&gt;PricingModule -->
<g id="edge30" class="edge">
<title>PriceMatrixFilter&#45;&gt;PricingModule</title>
<path fill="none" stroke="#000000" d="M3184,-153.7157C3184,-132.6789 3184,-101 3184,-101 3184,-101 1294.1621,-101 1294.1621,-101"/>
<polygon fill="#000000" stroke="#000000" points="1294.1621,-97.5001 1284.1621,-101 1294.1621,-104.5001 1294.1621,-97.5001"/>
</g>
<!-- ProductPricePipe -->
<g id="node37" class="node">
<title>ProductPricePipe</title>
<polygon fill="#ffffb3" stroke="#000000" points="3109.6994,-190 2996.3006,-190 2996.3006,-154 3109.6994,-154 3109.6994,-190"/>
<text text-anchor="middle" x="3053" y="-167.8" font-family="Times,serif" font-size="14.00" fill="#000000">ProductPricePipe</text>
</g>
<!-- ProductPricePipe&#45;&gt;PricingModule -->
<g id="edge31" class="edge">
<title>ProductPricePipe&#45;&gt;PricingModule</title>
<path fill="none" stroke="#000000" d="M3053,-153.8711C3053,-133.4276 3053,-103 3053,-103 3053,-103 1294.0721,-103 1294.0721,-103"/>
<polygon fill="#000000" stroke="#000000" points="1294.0721,-99.5001 1284.0721,-103 1294.072,-106.5001 1294.0721,-99.5001"/>
</g>
<!-- QuotePricePipe -->
<g id="node38" class="node">
<title>QuotePricePipe</title>
<polygon fill="#ffffb3" stroke="#000000" points="2977.8627,-190 2874.1373,-190 2874.1373,-154 2977.8627,-154 2977.8627,-190"/>
<text text-anchor="middle" x="2926" y="-167.8" font-family="Times,serif" font-size="14.00" fill="#000000">QuotePricePipe</text>
</g>
<!-- QuotePricePipe&#45;&gt;PricingModule -->
<g id="edge32" class="edge">
<title>QuotePricePipe&#45;&gt;PricingModule</title>
<path fill="none" stroke="#000000" d="M2926,-153.7772C2926,-133.6348 2926,-104 2926,-104 2926,-104 1294.1791,-104 1294.1791,-104"/>
<polygon fill="#000000" stroke="#000000" points="1294.1792,-100.5001 1284.1791,-104 1294.1791,-107.5001 1294.1792,-100.5001"/>
</g>
<!-- TableComponent -->
<g id="node51" class="node">
<title>TableComponent</title>
<polygon fill="#ffffb3" stroke="#000000" points="4516.705,-190 4403.295,-190 4403.295,-154 4516.705,-154 4516.705,-190"/>
<text text-anchor="middle" x="4460" y="-167.8" font-family="Times,serif" font-size="14.00" fill="#000000">TableComponent</text>
</g>
<!-- TableComponent&#45;&gt;TableModule -->
<g id="edge45" class="edge">
<title>TableComponent&#45;&gt;TableModule</title>
<path fill="none" stroke="#000000" d="M4460,-190.2228C4460,-190.2228 4460,-211.7269 4460,-211.7269"/>
<polygon fill="#000000" stroke="#000000" points="4456.5001,-211.7269 4460,-221.7269 4463.5001,-211.727 4456.5001,-211.7269"/>
</g>
<!-- TableComponent  -->
<g id="node53" class="node">
<title>TableComponent </title>
<polygon fill="#fb8072" stroke="#000000" points="4519.2052,-326 4402.7948,-326 4402.7948,-290 4519.2052,-290 4519.2052,-326"/>
<text text-anchor="middle" x="4461" y="-303.8" font-family="Times,serif" font-size="14.00" fill="#000000">TableComponent </text>
</g>
<!-- TableModule&#45;&gt;TableComponent  -->
<g id="edge47" class="edge">
<title>TableModule&#45;&gt;TableComponent </title>
<path fill="none" stroke="#000000" stroke-dasharray="5,2" d="M4460,-258.2228C4460,-258.2228 4460,-279.7269 4460,-279.7269"/>
<polygon fill="#000000" stroke="#000000" points="4456.5001,-279.7269 4460,-289.7269 4463.5001,-279.727 4456.5001,-279.7269"/>
</g>
</g>
</svg>
